<?xml version="1.0" encoding="UTF-8" standalone="no"?>
<svg width="159px" height="47px" viewBox="0 0 159 47" version="1.1" xmlns="http://www.w3.org/2000/svg" xmlns:xlink="http://www.w3.org/1999/xlink" xmlns:sketch="http://www.bohemiancoding.com/sketch/ns">
    <!-- Generator: Sketch 3.3.3 (12072) - http://www.bohemiancoding.com/sketch -->
    <title>Download_on_the_App_Store_Badge_US-UK_135x40</title>
    <desc>Created with Sketch.</desc>
    <defs></defs>
    <g id="Website" stroke="none" stroke-width="1" fill="none" fill-rule="evenodd" sketch:type="MSPage">
        <g id="Cloud-Streams-Home" sketch:type="MSArtboardGroup" transform="translate(-477.000000, -2737.000000)">
            <g id="Download_on_the_App_Store_Badge_US-UK_135x40" sketch:type="MSLayerGroup" transform="translate(477.000000, 2737.000000)">
                <g id="Group" sketch:type="MSShapeGroup">
                    <path d="M153.343133,47 L5.56971111,47 C2.49924444,47 0,44.4996 0,41.438725 L0,5.55305 C0,2.491 2.49924444,0 5.56971111,0 L153.343133,0 C156.412422,0 159,2.491 159,5.55305 L159,41.438725 C159,44.4996 156.412422,47 153.343133,47 L153.343133,47 L153.343133,47 Z" id="Shape" fill="#A6A6A6"></path>
                    <path d="M157.859911,41.4399 C157.859911,43.9262 155.8412,45.94015 153.344311,45.94015 L5.56971111,45.94015 C3.074,45.94015 1.04822222,43.9262 1.04822222,41.4399 L1.04822222,5.551875 C1.04822222,3.06675 3.074,1.04575 5.56971111,1.04575 L153.343133,1.04575 C155.8412,1.04575 157.858733,3.06675 157.858733,5.551875 L157.859911,41.4399 L157.859911,41.4399 Z" id="Shape" fill="#000000"></path>
                    <g transform="translate(14.133333, 7.050000)" id="Shape" fill="#FFFFFF">
                        <path d="M21.3507556,16.1962 C21.3166,12.409175 24.4589111,10.566775 24.6026,10.481 C22.8229778,7.892475 20.0646222,7.5388 19.0953111,7.5106 C16.7786222,7.267375 14.5314222,8.893575 13.3512889,8.893575 C12.1476,8.893575 10.3302889,7.5341 8.37164444,7.57405 C5.8512,7.612825 3.49328889,9.06865 2.20008889,11.32935 C-0.468755556,15.938875 1.52168889,22.71275 4.07864444,26.438675 C5.35771111,28.26345 6.85231111,30.3009 8.8086,30.229225 C10.7224889,30.1505 11.4374,29.011925 13.7470222,29.011925 C16.0354444,29.011925 16.7067778,30.229225 18.7019333,30.1834 C20.7559778,30.1505 22.0491778,28.3504 23.2834889,26.509175 C24.7616,24.417675 25.3552,22.3579 25.3787556,22.25215 C25.3304667,22.2357 21.3896222,20.735225 21.3507556,16.1962 L21.3507556,16.1962 Z"></path>
                        <path d="M17.5818667,5.05955 C18.6112444,3.775275 19.3155556,2.02805 19.1200444,0.254975 C17.6301556,0.320775 15.7669111,1.2831 14.6939556,2.539175 C13.7446667,3.646025 12.8966667,5.460225 13.1157333,7.166325 C14.7893556,7.290875 16.5077333,6.32385 17.5818667,5.05955 L17.5818667,5.05955 Z"></path>
                    </g>
                    <g transform="translate(49.466667, 21.150000)" id="Shape" fill="#FFFFFF">
                        <path d="M13.7152222,15.8672 L11.0404889,15.8672 L9.57533333,11.274125 L4.48262222,11.274125 L3.08695556,15.8672 L0.482888889,15.8672 L5.52848889,0.2303 L8.64488889,0.2303 L13.7152222,15.8672 L13.7152222,15.8672 Z M9.13366667,9.347125 L7.80866667,5.264 C7.66851111,4.846875 7.40586667,3.864575 7.01837778,2.318275 L6.97126667,2.318275 C6.81697778,2.983325 6.56846667,3.965625 6.22691111,5.264 L4.92546667,9.347125 L9.13366667,9.347125 L9.13366667,9.347125 Z"></path>
                        <path d="M26.6908,10.0909 C26.6908,12.0085 26.1714,13.52425 25.1326,14.636975 C24.2021556,15.6275 23.0467556,16.122175 21.6675778,16.122175 C20.1788667,16.122175 19.1094444,15.588725 18.4581333,14.521825 L18.4110222,14.521825 L18.4110222,20.46145 L15.9,20.46145 L15.9,8.303725 C15.9,7.098175 15.8682,5.8609 15.8069556,4.5919 L18.0152889,4.5919 L18.1554444,6.379075 L18.2025556,6.379075 C19.0399556,5.032525 20.3107778,4.360425 22.0162,4.360425 C23.3494444,4.360425 24.4624444,4.88565 25.3528444,5.937275 C26.2456,6.990075 26.6908,8.374225 26.6908,10.0909 L26.6908,10.0909 Z M24.1326667,10.18255 C24.1326667,9.0851 23.8853333,8.18035 23.3883111,7.4683 C22.8453556,6.7257 22.1163111,6.3544 21.2023556,6.3544 C20.5828444,6.3544 20.0198667,6.5612 19.5169556,6.968925 C19.0128667,7.380175 18.6830889,7.91715 18.5288,8.5822 C18.4510667,8.8924 18.4122,9.1462 18.4122,9.34595 L18.4122,11.22595 C18.4122,12.0461 18.6642444,12.738175 19.1683333,13.30335 C19.6724222,13.868525 20.3272667,14.150525 21.1328667,14.150525 C22.0786222,14.150525 22.8147333,13.786275 23.3412,13.060125 C23.8688444,12.3328 24.1326667,11.374 24.1326667,10.18255 L24.1326667,10.18255 Z"></path>
                        <path d="M39.6899333,10.0909 C39.6899333,12.0085 39.1705333,13.52425 38.1305556,14.636975 C37.2012889,15.6275 36.0458889,16.122175 34.6667111,16.122175 C33.178,16.122175 32.1085778,15.588725 31.4584444,14.521825 L31.4113333,14.521825 L31.4113333,20.46145 L28.9003111,20.46145 L28.9003111,8.303725 C28.9003111,7.098175 28.8685111,5.8609 28.8072667,4.5919 L31.0156,4.5919 L31.1557556,6.379075 L31.2028667,6.379075 C32.0390889,5.032525 33.3099111,4.360425 35.0165111,4.360425 C36.3485778,4.360425 37.4615778,4.88565 38.3543333,5.937275 C39.2435556,6.990075 39.6899333,8.374225 39.6899333,10.0909 L39.6899333,10.0909 Z M37.1318,10.18255 C37.1318,9.0851 36.8832889,8.18035 36.3862667,7.4683 C35.8433111,6.7257 35.1166222,6.3544 34.2014889,6.3544 C33.5808,6.3544 33.019,6.5612 32.5149111,6.968925 C32.0108222,7.380175 31.6822222,7.91715 31.5279333,8.5822 C31.4513778,8.8924 31.4113333,9.1462 31.4113333,9.34595 L31.4113333,11.22595 C31.4113333,12.0461 31.6633778,12.738175 32.1651111,13.30335 C32.6692,13.86735 33.3240444,14.150525 34.132,14.150525 C35.0777556,14.150525 35.8138667,13.786275 36.3403333,13.060125 C36.8679778,12.3328 37.1318,11.374 37.1318,10.18255 L37.1318,10.18255 Z"></path>
                        <path d="M54.2237111,11.4821 C54.2237111,12.8122 53.7608444,13.894375 52.8315778,14.7298 C51.8104444,15.642775 50.3888667,16.098675 48.5621333,16.098675 C46.8755556,16.098675 45.5234667,15.774375 44.4999778,15.1246 L45.0818,13.036625 C46.1842,13.701675 47.3937778,14.035375 48.7117111,14.035375 C49.6574667,14.035375 50.3935778,13.821525 50.9224,13.396175 C51.4488667,12.970825 51.7115111,12.399775 51.7115111,11.687725 C51.7115111,11.053225 51.4948,10.5186 51.0602,10.085025 C50.6279556,9.65145 49.9059778,9.248425 48.8978,8.87595 C46.1535778,7.854875 44.7826444,6.3591 44.7826444,4.39215 C44.7826444,3.1067 45.2631778,2.052725 46.2254222,1.232575 C47.1841333,0.41125 48.4632,0.001175 50.0626222,0.001175 C51.4889111,0.001175 52.6737556,0.2491 53.6195111,0.743775 L52.9917556,2.785925 C52.1084222,2.306525 51.1096667,2.066825 49.9919556,2.066825 C49.1086222,2.066825 48.4184444,2.2842 47.9237778,2.7166 C47.5056667,3.103175 47.2960222,3.57435 47.2960222,4.132475 C47.2960222,4.750525 47.5351111,5.26165 48.0156444,5.6635 C48.4337556,6.0348 49.1934222,6.43665 50.2958222,6.870225 C51.6443778,7.4119 52.6348889,8.045225 53.2720667,8.771375 C53.9068889,9.495175 54.2237111,10.4011 54.2237111,11.4821 L54.2237111,11.4821 Z"></path>
                        <path d="M62.5258667,6.4719 L59.7580889,6.4719 L59.7580889,11.946225 C59.7580889,13.3386 60.2456889,14.0342 61.2232444,14.0342 C61.6719778,14.0342 62.0441556,13.995425 62.3386,13.917875 L62.4080889,15.8202 C61.9134222,16.004675 61.2621111,16.0975 60.4553333,16.0975 C59.4636444,16.0975 58.6886667,15.795525 58.1292222,15.19275 C57.5721333,14.5888 57.2918222,13.57595 57.2918222,12.153025 L57.2918222,6.46955 L55.6429333,6.46955 L55.6429333,4.58955 L57.2918222,4.58955 L57.2918222,2.525075 L59.7580889,1.782475 L59.7580889,4.58955 L62.5258667,4.58955 L62.5258667,6.4719 L62.5258667,6.4719 Z"></path>
                        <path d="M75.0138444,10.136725 C75.0138444,11.86985 74.5168222,13.292775 73.5251333,14.4055 C72.4851556,15.551125 71.1048,16.122175 69.3840667,16.122175 C67.7257556,16.122175 66.4054667,15.57345 65.4208444,14.476 C64.4362222,13.37855 63.9439111,11.993225 63.9439111,10.32355 C63.9439111,8.576325 64.4503556,7.145175 65.4667778,6.03245 C66.4808444,4.91855 67.8494222,4.3616 69.5701556,4.3616 C71.2284667,4.3616 72.5628889,4.910325 73.5698889,6.00895 C74.5333111,7.074675 75.0138444,8.4506 75.0138444,10.136725 L75.0138444,10.136725 Z M72.4086,10.2178 C72.4086,9.177925 72.186,8.2861 71.7349111,7.542325 C71.2084444,6.642275 70.4558444,6.193425 69.4806444,6.193425 C68.4712889,6.193425 67.7045556,6.64345 67.1780889,7.542325 C66.727,8.287275 66.5044,9.1932 66.5044,10.2648 C66.5044,11.304675 66.727,12.1965 67.1780889,12.9391 C67.7210444,13.83915 68.4795333,14.288 69.4582667,14.288 C70.4169778,14.288 71.1695778,13.82975 71.7125333,12.9156 C72.1754,12.157725 72.4086,11.2565 72.4086,10.2178 L72.4086,10.2178 Z"></path>
                        <path d="M83.1758444,6.795025 C82.9273333,6.7492 82.6623333,6.7257 82.3843778,6.7257 C81.5010444,6.7257 80.8179333,7.058225 80.3374,7.72445 C79.9192889,8.31195 79.7096444,9.05455 79.7096444,9.951075 L79.7096444,15.8672 L77.1998,15.8672 L77.2233556,8.14275 C77.2233556,6.8432 77.1915556,5.659975 77.1291333,4.593075 L79.3162667,4.593075 L79.4081333,6.750375 L79.4776222,6.750375 C79.7426222,6.00895 80.1607333,5.41205 80.7331333,4.964375 C81.2925778,4.56135 81.8967778,4.360425 82.5480889,4.360425 C82.7801111,4.360425 82.9897556,4.376875 83.1758444,4.40625 L83.1758444,6.795025 L83.1758444,6.795025 Z"></path>
                        <path d="M94.4059556,9.6961 C94.4059556,10.14495 94.3765111,10.5233 94.3140889,10.832325 L86.7810222,10.832325 C86.8104667,11.946225 87.1744,12.7981 87.874,13.3856 C88.5088222,13.910825 89.3297333,14.174025 90.3379111,14.174025 C91.4532667,14.174025 92.4708667,13.9966 93.386,13.640575 L93.7793778,15.379575 C92.7099556,15.844875 91.4473778,16.07635 89.9904667,16.07635 C88.2379333,16.07635 86.8622889,15.5617 85.8611778,14.533575 C84.8624222,13.50545 84.3618667,12.124825 84.3618667,10.392875 C84.3618667,8.69265 84.8270889,7.276775 85.7587111,6.1476 C86.7339111,4.94205 88.0518444,4.339275 89.7101556,4.339275 C91.3390222,4.339275 92.5721556,4.94205 93.4095556,6.1476 C94.0726444,7.105225 94.4059556,8.289625 94.4059556,9.6961 L94.4059556,9.6961 Z M92.0115333,9.046325 C92.0280222,8.303725 91.8643111,7.662175 91.5239333,7.1205 C91.0893333,6.423725 90.4215333,6.075925 89.5228889,6.075925 C88.7019778,6.075925 88.0341778,6.4155 87.5242,7.097 C87.1060889,7.638675 86.8575778,8.28845 86.7810222,9.04515 L92.0115333,9.04515 L92.0115333,9.046325 Z"></path>
                    </g>
                    <g transform="translate(50.644444, 7.050000)" id="Shape" fill="#FFFFFF">
                        <path d="M7.12555556,4.710575 C7.12555556,6.09355 6.7098,7.1346 5.87946667,7.833725 C5.11037778,8.4788 4.0174,8.801925 2.60171111,8.801925 C1.89975556,8.801925 1.29908889,8.771375 0.796177778,8.710275 L0.796177778,1.15385 C1.4522,1.0481 2.15886667,0.99405 2.92206667,0.99405 C4.27062222,0.99405 5.28704444,1.286625 5.97251111,1.871775 C6.74042222,2.5333 7.12555556,3.479175 7.12555556,4.710575 L7.12555556,4.710575 Z M5.82411111,4.74465 C5.82411111,3.848125 5.5862,3.16075 5.11037778,2.68135 C4.63455556,2.203125 3.93966667,1.963425 3.02453333,1.963425 C2.63586667,1.963425 2.30491111,1.989275 2.03048889,2.043325 L2.03048889,7.7879 C2.18242222,7.8114 2.46037778,7.821975 2.86435556,7.821975 C3.80893333,7.821975 4.53797778,7.55995 5.05148889,7.0359 C5.565,6.51185 5.82411111,5.7481 5.82411111,4.74465 L5.82411111,4.74465 Z"></path>
                        <path d="M14.0261556,5.918475 C14.0261556,6.77035 13.7823556,7.4683 13.2947556,8.01585 C12.7836,8.578675 12.1063778,8.8595 11.2607333,8.8595 C10.4457111,8.8595 9.79675556,8.590425 9.31268889,8.049925 C8.8298,7.5106 8.58835556,6.830275 8.58835556,6.010125 C8.58835556,5.152375 8.83686667,4.44855 9.33624444,3.902175 C9.83562222,3.3558 10.5069556,3.082025 11.3526,3.082025 C12.1676222,3.082025 12.8224667,3.3511 13.3183111,3.890425 C13.7894222,4.414475 14.0261556,5.091275 14.0261556,5.918475 L14.0261556,5.918475 Z M12.7459111,5.958425 C12.7459111,5.4473 12.6352,5.009025 12.4149556,4.6436 C12.1558444,4.2018 11.7872,3.9809 11.3078444,3.9809 C10.812,3.9809 10.4351111,4.2018 10.176,4.6436 C9.95457778,5.009025 9.84504444,5.45435 9.84504444,5.98075 C9.84504444,6.491875 9.95575556,6.93015 10.176,7.295575 C10.4433556,7.737375 10.8155333,7.958275 11.2960667,7.958275 C11.7671778,7.958275 12.137,7.73385 12.4031778,7.283825 C12.6316667,6.91135 12.7459111,6.46955 12.7459111,5.958425 L12.7459111,5.958425 Z"></path>
                        <path d="M23.2787778,3.194825 L21.5415556,8.733775 L20.4108889,8.733775 L19.6912667,6.32855 C19.5087111,5.728125 19.3603111,5.131225 19.2448889,4.539025 L19.2225111,4.539025 C19.1153333,5.147675 18.9669333,5.7434 18.7761333,6.32855 L18.0117556,8.733775 L16.8681333,8.733775 L15.2345556,3.194825 L16.5030222,3.194825 L17.1307778,5.828 C17.2827111,6.45075 17.4075556,7.044125 17.5076667,7.605775 L17.5300444,7.605775 C17.6219111,7.142825 17.7738444,6.552975 17.9882,5.83975 L18.7761333,3.196 L19.7819556,3.196 L20.5369111,5.78335 C20.7194667,6.414325 20.8678667,7.0218 20.9821111,7.60695 L21.0162667,7.60695 C21.0998889,7.037075 21.2259111,6.4296 21.3931556,5.78335 L22.0668444,3.196 L23.2787778,3.196 L23.2787778,3.194825 Z"></path>
                        <path d="M29.6776444,8.733775 L28.4433333,8.733775 L28.4433333,5.561275 C28.4433333,4.583675 28.0711556,4.094875 27.3244444,4.094875 C26.9581556,4.094875 26.6625333,4.228825 26.4328667,4.4979 C26.2055556,4.766975 26.0901333,5.084225 26.0901333,5.4473 L26.0901333,8.7326 L24.8558222,8.7326 L24.8558222,4.77755 C24.8558222,4.2911 24.8405111,3.763525 24.8110667,3.192475 L25.8958,3.192475 L25.9535111,4.05845 L25.9876667,4.05845 C26.1313556,3.789375 26.3457111,3.5673 26.6272,3.389875 C26.9616889,3.183075 27.3362222,3.0785 27.7460889,3.0785 C28.2643111,3.0785 28.6953778,3.24535 29.0381111,3.580225 C29.4644667,3.9903 29.6776444,4.602475 29.6776444,5.415575 L29.6776444,8.733775 L29.6776444,8.733775 Z"></path>
                        <path d="M33.0814222,8.733775 L31.8482889,8.733775 L31.8482889,0.6533 L33.0814222,0.6533 L33.0814222,8.733775 L33.0814222,8.733775 Z"></path>
                        <path d="M40.3483111,5.918475 C40.3483111,6.77035 40.1045111,7.4683 39.6169111,8.01585 C39.1057556,8.578675 38.4273556,8.8595 37.5828889,8.8595 C36.7666889,8.8595 36.1177333,8.590425 35.6348444,8.049925 C35.1519556,7.5106 34.9105111,6.830275 34.9105111,6.010125 C34.9105111,5.152375 35.1590222,4.44855 35.6584,3.902175 C36.1577778,3.3558 36.8291111,3.082025 37.6735778,3.082025 C38.4897778,3.082025 39.1434444,3.3511 39.6404667,3.890425 C40.1115778,4.414475 40.3483111,5.091275 40.3483111,5.918475 L40.3483111,5.918475 Z M39.0668889,5.958425 C39.0668889,5.4473 38.9561778,5.009025 38.7359333,4.6436 C38.478,4.2018 38.1081778,3.9809 37.63,3.9809 C37.1329778,3.9809 36.7560889,4.2018 36.4981556,4.6436 C36.2767333,5.009025 36.1672,5.45435 36.1672,5.98075 C36.1672,6.491875 36.2779111,6.93015 36.4981556,7.295575 C36.7655111,7.737375 37.1376889,7.958275 37.6182222,7.958275 C38.0893333,7.958275 38.4579778,7.73385 38.7241556,7.283825 C38.9538222,6.91135 39.0668889,6.46955 39.0668889,5.958425 L39.0668889,5.958425 Z"></path>
                        <path d="M46.322,8.733775 L45.2137111,8.733775 L45.1218444,8.09575 L45.0876889,8.09575 C44.7084444,8.604525 44.1678444,8.8595 43.4658889,8.8595 C42.9417778,8.8595 42.5177778,8.691475 42.1986,8.357775 C41.9088667,8.054625 41.764,7.67745 41.764,7.229775 C41.764,6.552975 42.0466667,6.03715 42.6155333,5.67995 C43.1832222,5.32275 43.9817556,5.147675 45.0099556,5.1559 L45.0099556,5.0525 C45.0099556,4.322825 44.626,3.958575 43.8569111,3.958575 C43.3092444,3.958575 42.8263556,4.09605 42.4094222,4.36865 L42.1585556,3.56025 C42.6744222,3.241825 43.3116,3.082025 44.0630222,3.082025 C45.5140444,3.082025 46.2419111,3.845775 46.2419111,5.373275 L46.2419111,7.413075 C46.2419111,7.9665 46.269,8.407125 46.322,8.733775 L46.322,8.733775 Z M45.0405778,6.830275 L45.0405778,5.97605 C43.6790667,5.95255 42.9983111,6.325025 42.9983111,7.0923 C42.9983111,7.38135 43.0760444,7.59755 43.2350444,7.742075 C43.3940444,7.8866 43.5966222,7.958275 43.8380667,7.958275 C44.1089556,7.958275 44.3621778,7.8725 44.5930222,7.702125 C44.8250444,7.530575 44.9675556,7.3132 45.0205556,7.046475 C45.0335111,6.98655 45.0405778,6.9137 45.0405778,6.830275 L45.0405778,6.830275 Z"></path>
                        <path d="M53.3356667,8.733775 L52.2403333,8.733775 L52.1826222,7.8443 L52.1484667,7.8443 C51.7986667,8.5211 51.2027111,8.8595 50.3653111,8.8595 C49.6963333,8.8595 49.1392444,8.597475 48.6975778,8.073425 C48.2559111,7.549375 48.0356667,6.86905 48.0356667,6.033625 C48.0356667,5.1371 48.2747556,4.41095 48.7552889,3.85635 C49.2205111,3.33935 49.7905556,3.08085 50.4689556,3.08085 C51.2144889,3.08085 51.7362444,3.331125 52.0330444,3.83285 L52.0566,3.83285 L52.0566,0.6533 L53.2920889,0.6533 L53.2920889,7.241525 C53.2920889,7.78085 53.3062222,8.277875 53.3356667,8.733775 L53.3356667,8.733775 Z M52.0566,6.397875 L52.0566,5.474325 C52.0566,5.314525 52.0448222,5.185275 52.0224444,5.086575 C51.9529556,4.790475 51.8033778,4.541375 51.5760667,4.34045 C51.3464,4.139525 51.0696222,4.038475 50.7504444,4.038475 C50.2899333,4.038475 49.9295333,4.2206 49.6645333,4.586025 C49.4018889,4.95145 49.2688,5.417925 49.2688,5.9878 C49.2688,6.53535 49.3948222,6.9795 49.6480444,7.321425 C49.9154,7.685675 50.2758,7.8678 50.7268889,7.8678 C51.1320444,7.8678 51.4559333,7.716225 51.7020889,7.4119 C51.94,7.131075 52.0566,6.792675 52.0566,6.397875 L52.0566,6.397875 Z"></path>
                        <path d="M63.8920889,5.918475 C63.8920889,6.77035 63.6482889,7.4683 63.1606889,8.01585 C62.6495333,8.578675 61.9734889,8.8595 61.1266667,8.8595 C60.3128222,8.8595 59.6638667,8.590425 59.1786222,8.049925 C58.6957333,7.5106 58.4542889,6.830275 58.4542889,6.010125 C58.4542889,5.152375 58.7028,4.44855 59.2021778,3.902175 C59.7015556,3.3558 60.3728889,3.082025 61.2197111,3.082025 C62.0335556,3.082025 62.6895778,3.3511 63.1842444,3.890425 C63.6553556,4.414475 63.8920889,5.091275 63.8920889,5.918475 L63.8920889,5.918475 Z M62.6130222,5.958425 C62.6130222,5.4473 62.5023111,5.009025 62.2820667,4.6436 C62.0217778,4.2018 61.6543111,3.9809 61.1737778,3.9809 C60.6791111,3.9809 60.3022222,4.2018 60.0419333,4.6436 C59.8205111,5.009025 59.7109778,5.45435 59.7109778,5.98075 C59.7109778,6.491875 59.8216889,6.93015 60.0419333,7.295575 C60.3092889,7.737375 60.6814667,7.958275 61.162,7.958275 C61.6331111,7.958275 62.0041111,7.73385 62.2702889,7.283825 C62.4976,6.91135 62.6130222,6.46955 62.6130222,5.958425 L62.6130222,5.958425 Z"></path>
                        <path d="M70.5288667,8.733775 L69.2957333,8.733775 L69.2957333,5.561275 C69.2957333,4.583675 68.9235556,4.094875 68.1756667,4.094875 C67.8093778,4.094875 67.5137556,4.228825 67.2852667,4.4979 C67.0567778,4.766975 66.9425333,5.084225 66.9425333,5.4473 L66.9425333,8.7326 L65.7070444,8.7326 L65.7070444,4.77755 C65.7070444,4.2911 65.6929111,3.763525 65.6634667,3.192475 L66.7470222,3.192475 L66.8047333,4.05845 L66.8388889,4.05845 C66.9837556,3.789375 67.1981111,3.5673 67.4784222,3.389875 C67.8140889,3.183075 68.1874444,3.0785 68.5984889,3.0785 C69.1155333,3.0785 69.5466,3.24535 69.8893333,3.580225 C70.3168667,3.9903 70.5288667,4.602475 70.5288667,5.415575 L70.5288667,8.733775 L70.5288667,8.733775 Z"></path>
                        <path d="M78.8357333,4.1172 L77.4765778,4.1172 L77.4765778,6.80795 C77.4765778,7.4918 77.7180222,7.833725 78.1962,7.833725 C78.4176222,7.833725 78.6013556,7.814925 78.7462222,7.77615 L78.7780222,8.710275 C78.5342222,8.801925 78.2138667,8.84775 77.8193111,8.84775 C77.3317111,8.84775 76.9524667,8.6997 76.6780444,8.4036 C76.4024444,8.1075 76.2658222,7.6093 76.2658222,6.910175 L76.2658222,4.1172 L75.4543333,4.1172 L75.4543333,3.194825 L76.2658222,3.194825 L76.2658222,2.179625 L77.4754,1.815375 L77.4754,3.19365 L78.8345556,3.19365 L78.8345556,4.1172 L78.8357333,4.1172 Z"></path>
                        <path d="M85.3700444,8.733775 L84.1345556,8.733775 L84.1345556,5.584775 C84.1345556,4.5919 83.7623778,4.094875 83.0168444,4.094875 C82.4444444,4.094875 82.0534222,4.38275 81.8390667,4.9585 C81.8025556,5.079525 81.7813556,5.227575 81.7813556,5.401475 L81.7813556,8.7326 L80.5482222,8.7326 L80.5482222,0.6533 L81.7813556,0.6533 L81.7813556,3.991475 L81.8049111,3.991475 C82.1935778,3.384 82.7506667,3.08085 83.4726444,3.08085 C83.9838,3.08085 84.4066222,3.2477 84.7422889,3.582575 C85.1604,3.9997 85.3700444,4.6201 85.3700444,5.44025 L85.3700444,8.733775 L85.3700444,8.733775 Z"></path>
                        <path d="M92.1104667,5.702275 C92.1104667,5.923175 92.0939778,6.108825 92.0645333,6.2604 L88.3627778,6.2604 C88.3792667,6.80795 88.5559333,7.225075 88.8986667,7.514125 C89.2119556,7.772625 89.6159333,7.901875 90.1106,7.901875 C90.6582667,7.901875 91.1576444,7.814925 91.6075556,7.63985 L91.8007111,8.49525 C91.2742444,8.7232 90.6547333,8.837175 89.9374667,8.837175 C89.0776889,8.837175 88.4004667,8.58455 87.9105111,8.0793 C87.4182,7.57405 87.1744,6.896075 87.1744,6.045375 C87.1744,5.20995 87.4017111,4.51435 87.8598667,3.95975 C88.3380444,3.36755 88.9846444,3.07145 89.8008444,3.07145 C90.5993778,3.07145 91.2059333,3.36755 91.6158,3.95975 C91.9467556,4.42975 92.1104667,5.011375 92.1104667,5.702275 L92.1104667,5.702275 Z M90.9326889,5.38385 C90.9421111,5.018425 90.8608444,4.703525 90.6936,4.437975 C90.4792444,4.09605 90.153,3.9245 89.7113333,3.9245 C89.3085333,3.9245 88.9799333,4.09135 88.7290667,4.426225 C88.5241333,4.69295 88.4028222,5.011375 88.3627778,5.38385 L90.9326889,5.38385 L90.9326889,5.38385 Z"></path>
                    </g>
                </g>
            </g>
        </g>
    </g>
</svg>