<?xml version="1.0" encoding="UTF-8" standalone="no"?>
<svg width="140px" height="45px" viewBox="0 0 140 45" version="1.1" xmlns="http://www.w3.org/2000/svg" xmlns:xlink="http://www.w3.org/1999/xlink" xmlns:sketch="http://www.bohemiancoding.com/sketch/ns">
    <!-- Generator: Sketch 3.3.3 (12072) - http://www.bohemiancoding.com/sketch -->
    <title>Logo</title>
    <desc>Created with Sketch.</desc>
    <defs>
        <path id="path-1" d="M4.85789474,14.350814 C4.85789474,14.3183721 4.85368421,14.2869767 4.85368421,14.2540116 C4.85368421,11.0605814 7.45684211,8.47151163 10.6689474,8.47151163 C12.5231579,8.47151163 14.1710526,9.3375 15.2363158,10.6812209 C17.3447368,8.28575581 20.44,6.77093023 23.8915789,6.77093023 C28.8752632,6.77093023 33.1152632,9.92145349 34.7131579,14.3277907 L34.9321053,14.3277907 C37.2221053,14.3277907 39.1915789,15.6772674 40.0931579,17.6175 L40.0931579,1.35784884 C40.0931579,0.72 39.5742105,0.203023256 38.9326316,0.203023256 L1.31473684,0.203023256 C0.673157895,0.203023256 0.153157895,0.72 0.153157895,1.35784884 L0.153157895,17.619593 C0.993684211,15.8101744 2.76421053,14.5161628 4.85789474,14.350814"></path>
        <path id="path-3" d="M4.85789474,14.350814 C4.85789474,14.3183721 4.85368421,14.2869767 4.85368421,14.2540116 C4.85368421,11.0605814 7.45684211,8.47151163 10.6689474,8.47151163 C12.5231579,8.47151163 14.1710526,9.3375 15.2363158,10.6812209 C17.3447368,8.28575581 20.44,6.77093023 23.8915789,6.77093023 C28.8752632,6.77093023 33.1152632,9.92145349 34.7131579,14.3277907 L34.9321053,14.3277907 C37.2221053,14.3277907 39.1915789,15.6772674 40.0931579,17.6175 L40.0931579,1.35784884 C40.0931579,0.72 39.5742105,0.203023256 38.9326316,0.203023256 L1.31473684,0.203023256 C0.673157895,0.203023256 0.153157895,0.72 0.153157895,1.35784884 L0.153157895,17.619593 C0.993684211,15.8101744 2.76421053,14.5161628 4.85789474,14.350814 L4.85789474,14.350814 Z"></path>
        <linearGradient x1="0%" y1="0%" x2="99.9986823%" y2="0%" id="linearGradient-5">
            <stop stop-color="#00EFE6" offset="0%"></stop>
            <stop stop-color="#00E6E6" offset="100%"></stop>
        </linearGradient>
        <path id="path-6" d="M4.85789474,14.350814 C4.85789474,14.3183721 4.85368421,14.2869767 4.85368421,14.2540116 C4.85368421,11.0605814 7.45684211,8.47151163 10.6689474,8.47151163 C12.5231579,8.47151163 14.1710526,9.3375 15.2363158,10.6812209 C17.3447368,8.28575581 20.44,6.77093023 23.8915789,6.77093023 C28.8752632,6.77093023 33.1152632,9.92145349 34.7131579,14.3277907 L34.9321053,14.3277907 C37.2221053,14.3277907 39.1915789,15.6772674 40.0931579,17.6175 L40.0931579,1.35784884 C40.0931579,0.72 39.5742105,0.203023256 38.9326316,0.203023256 L1.31473684,0.203023256 C0.673157895,0.203023256 0.153157895,0.72 0.153157895,1.35784884 L0.153157895,17.619593 C0.993684211,15.8101744 2.76421053,14.5161628 4.85789474,14.350814"></path>
    </defs>
    <g id="Website" stroke="none" stroke-width="1" fill="none" fill-rule="evenodd" sketch:type="MSPage">
        <g id="Cloud-Streams-Home" sketch:type="MSArtboardGroup" transform="translate(-116.000000, -22.000000)">
            <g id="Group" sketch:type="MSLayerGroup" transform="translate(76.000000, 22.000000)">
                <g id="Logo" transform="translate(40.000000, 0.000000)">
                    <path d="M11.5526316,30.0903488 C10.4463158,32.2173837 8.53315789,33.0634884 6.02631579,33.0634884 C2.02842105,33.0634884 0.143157895,30.6811047 0.143157895,27.7090116 C0.143157895,24.1864535 2.53842105,22.3126744 6.01157895,22.3126744 C8.22315789,22.3126744 10.4752632,23.1582558 11.3973684,25.2439535 L10.32,25.7363372 C9.59631579,24.0603488 7.99578947,23.3555233 6.02631579,23.3555233 C3.07789474,23.3555233 1.41894737,24.9472674 1.41894737,27.8644186 C1.41894737,30.2169767 3.02052632,31.9646512 6.13842105,31.9646512 C8.18,31.9646512 9.59631579,31.1185465 10.4463158,29.5550581 L11.5526316,30.0903488" id="Fill-7" fill="#C0C0C0" sketch:type="MSShapeGroup"></path>
                    <path d="M13.4368421,22.5659302 L14.6815789,22.5659302 L14.6815789,31.7113953 L22.8178947,31.7113953 L22.8178947,32.8097093 L13.4368421,32.8097093 L13.4368421,22.5659302" id="Fill-8" fill="#C0C0C0" sketch:type="MSShapeGroup"></path>
                    <path d="M29.8036842,22.3126744 C33.3042105,22.3126744 35.8421053,24.3413372 35.8421053,27.7508721 C35.8421053,31.3864535 32.78,33.0634884 29.8036842,33.0634884 C26.8268421,33.0634884 23.7657895,31.3864535 23.7657895,27.7508721 C23.7657895,24.3413372 26.3026316,22.3126744 29.8036842,22.3126744 L29.8036842,22.3126744 Z M29.8036842,31.9646512 C32.3131579,31.9646512 34.5652632,30.6402907 34.5652632,27.5263953 C34.5652632,25.2439535 32.7931579,23.3555233 29.8036842,23.3555233 C26.8126316,23.3555233 25.0415789,25.2439535 25.0415789,27.5263953 C25.0415789,30.6402907 27.2657895,31.9646512 29.8036842,31.9646512 L29.8036842,31.9646512 Z" id="Fill-9" fill="#C0C0C0" sketch:type="MSShapeGroup"></path>
                    <path d="M48.4789474,28.5975 C48.4789474,32.3031977 45.5747368,33.0634884 43.1789474,33.0634884 C40.7836842,33.0634884 37.8794737,32.3031977 37.8794737,28.5975 L37.8794737,22.5659302 L39.1273684,22.5659302 L39.1273684,28.5975 C39.1273684,30.9500581 40.6426316,32.0211628 43.1789474,32.0211628 C45.7157895,32.0211628 47.2321053,30.9500581 47.2321053,28.5975 L47.2321053,22.5659302 L48.4789474,22.5659302 L48.4789474,28.5975" id="Fill-10" fill="#C0C0C0" sketch:type="MSShapeGroup"></path>
                    <path d="M83.31,38.9051163 L83.31,43.7881395 C83.31,44.4259884 83.83,44.9419186 84.4715789,44.9419186 L122.092632,44.9419186 C122.735263,44.9419186 123.253158,44.4259884 123.253158,43.7881395 L123.253158,40.999186 C107.377368,40.999186 98.8236842,35.6661628 83.31,38.9051163" id="Fill-1" fill="#089CC9" sketch:type="MSShapeGroup"></path>
                    <path d="M82.4794737,22.5910465 L79.6526316,22.5910465 L80.0668421,20.3253488 C80.0826316,20.2390116 80.0589474,20.1479651 80.0026316,20.0809884 C79.9436842,20.0134884 79.8594737,19.9726744 79.7710526,19.9726744 L78.9705263,19.9726744 C78.8252632,19.9726744 78.7,20.0788953 78.6752632,20.2196512 L78.2631579,22.5910465 C78.2621053,22.5910465 71.7068421,22.5926163 71.7068421,22.5926163 C69.2178947,22.5926163 68.1384211,23.6872674 68.1384211,25.1633721 C68.1384211,28.257907 72.8068421,27.9005233 72.8068421,30.1374419 C72.8068421,31.8521512 70.2863158,32.2754651 67.4889474,31.3278488 C67.3152632,31.270814 67.13,31.3749419 67.0952632,31.5601744 C67.0389474,31.9013372 66.8847368,32.3031977 67.2010526,32.4167442 C70.1978947,33.4763372 74.2326316,33.0697674 74.1468421,29.9951163 C74.0505263,26.5960465 69.69,27.5525581 69.5015789,25.2680233 C69.4421053,24.5563953 70.0042105,23.7087209 71.8,23.7087209 C75.7126316,23.7087209 77.8426316,23.7097674 78.0494737,23.7097674 L76.9721053,29.9935465 C76.4710526,32.8128488 78.8694737,33.5192442 81.4815789,32.5051744 C81.7047368,32.4193605 81.7089474,32.0630233 81.7552632,31.8155233 C81.7973684,31.5863372 81.5678947,31.3984884 81.35,31.4853488 C79.8031579,32.0912791 77.9610526,32.111686 78.3594737,30.0165698 L79.4584211,23.7097674 L82.3921053,23.7097674 C82.7284211,23.7097674 82.7173684,23.2786047 82.7757895,22.9400581 C82.7921053,22.8516279 82.7663158,22.7647674 82.71,22.6962209 C82.6526316,22.6292442 82.57,22.5910465 82.4794737,22.5910465" id="Fill-2" fill="#5F5F5F" sketch:type="MSShapeGroup"></path>
                    <path d="M86.7963158,24.3350581 L87.04,22.9411047 C87.0563158,22.8531977 87.0305263,22.7647674 86.9742105,22.698314 C86.9173684,22.6292442 86.8321053,22.5910465 86.7447368,22.5910465 C83.5552632,22.5910465 83.9310526,22.3655233 83.7605263,23.3848256 C83.7305263,23.5684884 83.8747368,23.7343605 84.0557895,23.7343605 L85.5463158,23.7343605 L84.0257895,32.3314535 C84.0115789,32.4172674 84.0368421,32.5062209 84.0936842,32.5737209 C84.15,32.6412209 84.2336842,32.6799419 84.3226316,32.6799419 L85.1010526,32.6799419 C85.2478947,32.6799419 85.3726316,32.5768605 85.3968421,32.4340116 L86.4936842,26.2088372 C86.9968421,25.6620349 88.5373684,23.7976744 90.1884211,23.5669186 C90.9347368,23.4627907 90.9057895,24.1880233 90.72,24.9064535 C90.6089474,25.3444186 91.1894737,25.2894767 91.6431579,25.314593 C91.7773684,25.3224419 91.9,25.240814 91.9442105,25.1152326 C93.2568421,21.3263372 89.04,21.7323837 86.7963158,24.3350581" id="Fill-3" fill="#5F5F5F" sketch:type="MSShapeGroup"></path>
                    <path d="M100.727895,24.709186 C100.727895,20.6225581 92.2752632,21.7025581 92.2752632,28.4452326 C92.2752632,34.6248837 99.6931579,32.9243023 99.8452632,32.1080233 L99.9468421,31.5664535 C99.9921053,31.3330814 99.7547368,31.142093 99.5326316,31.2362791 C97.2721053,32.2037791 93.7494737,32.440814 93.6631579,28.4923256 C96.9205263,28.374593 100.727895,27.4698837 100.727895,24.709186 L100.727895,24.709186 Z M93.7347368,27.3751744 C94.5121053,22.9761628 99.4326316,22.518314 99.4326316,24.709186 C99.4326316,26.5667442 96.4405263,27.3045349 93.7347368,27.3751744 L93.7347368,27.3751744 Z" id="Fill-4" fill="#5F5F5F" sketch:type="MSShapeGroup"></path>
                    <path d="M112.856842,31.6009884 C111.741579,31.9688372 110.927368,31.8521512 111.128947,30.6606977 C112.75,21.5502907 112.926842,22.5910465 111.405263,22.5910465 C111.259474,22.5910465 111.135263,22.6941279 111.108421,22.8385465 L110.793684,24.6134302 C110.266316,23.2817442 109.118421,22.3294186 107.394211,22.3294186 C101.022105,22.3294186 100.033158,32.9436628 105.982105,32.9436628 C107.563158,32.9436628 108.903684,32.134186 109.813158,30.9458721 C109.634211,32.8416279 111.128947,33.2738372 112.968947,32.6464535 C113.211579,32.5648256 113.203158,32.2027326 113.247368,31.9332558 C113.282632,31.7113953 113.07,31.5303488 112.856842,31.6009884 L112.856842,31.6009884 Z M103.467368,28.3510465 C103.467368,22.7396512 110.411579,21.5597093 110.411579,26.8519186 C110.411579,32.4737791 103.467368,33.8258721 103.467368,28.3510465 L103.467368,28.3510465 Z" id="Fill-5" fill="#5F5F5F" sketch:type="MSShapeGroup"></path>
                    <path d="M139.454211,22.7951163 C135.422632,21.5110465 133.168421,23.0127907 133.168421,25.1623256 C133.168421,28.2547674 137.836316,27.8984302 137.836316,30.1353488 C137.836316,31.1101744 136.926842,31.7543023 135.274737,31.7543023 C134.73,31.7543023 130.331579,31.7673837 130.231579,31.7543023 C129.720526,31.6878488 129.376316,31.2760465 129.48,30.6606977 L130.365263,25.5668023 C130.747368,23.3769767 129.670526,22.3294186 128.066842,22.3294186 C126.366316,22.3294186 124.954211,23.5187791 124.067895,24.3523256 C123.833684,22.121686 121.01,21.2556977 117.868421,24.2094767 L118.094737,22.9411047 C118.127368,22.7584884 117.984211,22.5910465 117.797368,22.5910465 C114.611579,22.5910465 114.997368,22.338314 114.798947,23.3806395 C114.763684,23.5637791 114.908947,23.7343605 115.093684,23.7343605 L116.624211,23.7343605 L115.106316,32.3325 C115.072105,32.5114535 115.213158,32.6820349 115.401053,32.6820349 C115.921579,32.6820349 116.388947,32.7934884 116.452632,32.4350581 L117.676842,25.494593 C118.729474,24.5652907 120.071053,23.494186 121.363158,23.494186 C122.512632,23.494186 122.871579,24.3282558 122.656316,25.5882558 L121.451579,32.3325 C121.436316,32.4172674 121.457895,32.508314 121.516316,32.575814 C121.573158,32.643314 121.657368,32.6820349 121.744737,32.6820349 L122.547368,32.6820349 C122.694737,32.6820349 122.818947,32.5768605 122.843684,32.4340116 L124.044211,25.4705233 C127.595789,22.2713372 129.379474,23.3680814 129,25.5882558 C127.533158,33.7881977 126.793158,32.9436628 135.299474,32.9436628 C138.027895,32.9436628 139.177895,31.563314 139.177895,29.9935465 C139.177895,26.8283721 134.533684,27.2072093 134.533684,25.0194767 C134.533684,24.3052326 135.011579,23.424593 136.807368,23.424593 C137.634211,23.424593 138.478947,23.6192442 139.187368,23.8411047 C139.571579,23.9593605 139.587895,23.510407 139.658947,23.1305233 C139.684737,22.9845349 139.598421,22.8411628 139.454211,22.7951163" id="Fill-6" fill="#5F5F5F" sketch:type="MSShapeGroup"></path>
                    <path d="M51.2121053,22.5659302 L56.3015789,22.5659302 C59.5047368,22.5659302 61.8157895,24.2424419 61.8157895,27.5959884 C61.8157895,31.7673837 58.6257895,32.8097093 55.9057895,32.8097093 L51.2121053,32.8097093 L51.2121053,22.5659302 L51.2121053,22.5659302 Z M52.46,31.7113953 L56.1042105,31.7113953 C57.1252632,31.7113953 60.5389474,31.5837209 60.5389474,27.5541279 C60.5389474,24.5527326 58.3989474,23.6647674 56.3015789,23.6647674 L52.46,23.6647674 L52.46,31.7113953 L52.46,31.7113953 Z" id="Fill-11" fill="#C0C0C0" sketch:type="MSShapeGroup"></path>
                    <g id="Group-14" transform="translate(83.157895, 0.000000)">
                        <mask id="mask-2" sketch:name="Clip 13" fill="white">
                            <use xlink:href="#path-1"></use>
                        </mask>
                        <g id="Clip-13"></g>
                        <path d="M0.153157895,0.203023256 L0.153157895,17.619593 L0.153157895,0.203023256" id="Fill-12" fill="#00F0E6" sketch:type="MSShapeGroup" mask="url(#mask-2)"></path>
                    </g>
                    <g id="Group-17" transform="translate(83.157895, 0.000000)">
                        <mask id="mask-4" sketch:name="Clip 16" fill="white">
                            <use xlink:href="#path-3"></use>
                        </mask>
                        <g id="Clip-16"></g>
                        <path d="M0.153157895,0.203023256 L40.0936842,0.203023256 L40.0936842,17.619593 L0.153157895,17.619593 L0.153157895,0.203023256 Z" id="Fill-15" fill="url(#linearGradient-5)" sketch:type="MSShapeGroup" mask="url(#mask-4)"></path>
                    </g>
                    <g id="Group-20" transform="translate(83.157895, 0.000000)">
                        <mask id="mask-7" sketch:name="Clip 19" fill="white">
                            <use xlink:href="#path-6"></use>
                        </mask>
                        <g id="Clip-19"></g>
                        <path d="M40.0931579,17.619593 L40.0931579,0.203023256 L40.0931579,17.619593" id="Fill-18" fill="#00E6E6" sketch:type="MSShapeGroup" mask="url(#mask-7)"></path>
                    </g>
                </g>
            </g>
        </g>
    </g>
</svg>