<?xml version="1.0" encoding="UTF-8" standalone="no"?>
<svg width="164px" height="295px" viewBox="0 0 164 295" version="1.1" xmlns="http://www.w3.org/2000/svg" xmlns:xlink="http://www.w3.org/1999/xlink" xmlns:sketch="http://www.bohemiancoding.com/sketch/ns">
    <!-- Generator: Sketch 3.3.3 (12072) - http://www.bohemiancoding.com/sketch -->
    <title>Imported Layers</title>
    <desc>Created with Sketch.</desc>
    <defs></defs>
    <g id="Website" stroke="none" stroke-width="1" fill="none" fill-rule="evenodd" sketch:type="MSPage">
        <g id="Cloud-Streams-Home" sketch:type="MSArtboardGroup" transform="translate(-273.000000, -1235.000000)">
            <g id="Email-Listing-Alerts-+-Lorem-ipsum-dolor-si-+-Imported-Layers-+-Check-it-out-2" sketch:type="MSLayerGroup" transform="translate(273.000000, 1236.000000)">
                <g id="Email-Listing-Alerts-+-Lorem-ipsum-dolor-si-+-Imported-Layers" sketch:type="MSShapeGroup">
                    <g id="Imported-Layers">
                        <path d="M163.467532,273.595319 C163.467532,284.295637 154.796831,292.96967 144.101688,292.96967 L19.8983117,292.96967 C9.20316883,292.96967 0.532467532,284.295637 0.532467532,273.595319 L0.532467532,19.7088687 C0.532467532,9.00855101 9.20316883,0.334518096 19.8983117,0.334518096 L144.101688,0.334518096 C154.796831,0.334518096 163.467532,9.00855101 163.467532,19.7088687 L163.467532,273.595319 L163.467532,273.595319 Z" id="Fill-1" fill="#F4F4F4"></path>
                        <path d="M163.467532,273.595319 C163.467532,284.295637 154.796831,292.96967 144.101688,292.96967 L19.8983117,292.96967 C9.20316883,292.96967 0.532467532,284.295637 0.532467532,273.595319 L0.532467532,19.7088687 C0.532467532,9.00855101 9.20316883,0.334518096 19.8983117,0.334518096 L144.101688,0.334518096 C154.796831,0.334518096 163.467532,9.00855101 163.467532,19.7088687 L163.467532,273.595319 L163.467532,273.595319 Z" id="Stroke-2" stroke="#FFFFFF"></path>
                        <path d="M14.9090909,29.8296391 L149.090909,29.8296391 L149.090909,254.617277 L14.9090909,254.617277 L14.9090909,29.8296391 Z" id="Fill-3" fill="#FFFFFF"></path>
                        <path d="M90.6525974,273.793473 C90.6525974,279.0893 86.361974,283.381572 81.0681818,283.381572 C75.7743896,283.381572 71.4837662,279.0893 71.4837662,273.793473 C71.4837662,268.497647 75.7743896,264.205375 81.0681818,264.205375 C86.361974,264.205375 90.6525974,268.497647 90.6525974,273.793473" id="Fill-4" fill="#D8D8D8"></path>
                        <path d="M105.029221,72.4434093 C105.029221,85.681377 94.3010649,96.413655 81.0681818,96.413655 C67.8352987,96.413655 57.1071429,85.681377 57.1071429,72.4434093 C57.1071429,59.2054416 67.8352987,48.4731636 81.0681818,48.4731636 C94.3010649,48.4731636 105.029221,59.2054416 105.029221,72.4434093" id="Fill-5" fill="#F4F4F4"></path>
                        <path d="M100.103896,17.8445163 C100.103896,19.1676738 99.0315065,20.2415408 97.7077922,20.2415408 L64.1623377,20.2415408 C62.8386234,20.2415408 61.7662338,19.1676738 61.7662338,17.8445163 L61.7662338,17.3118441 C61.7662338,15.9876212 62.8386234,14.9148196 64.1623377,14.9148196 L97.7077922,14.9148196 C99.0315065,14.9148196 100.103896,15.9876212 100.103896,17.3118441 L100.103896,17.8445163" id="Fill-6" fill="#D8D8D8"></path>
                        <path d="M24.4935065,110.795802 L139.506494,110.795802 L139.506494,182.70654 L24.4935065,182.70654 L24.4935065,110.795802 Z" id="Fill-7" fill="#E8EDEF"></path>
                        <path d="M24.4935065,110.795802 L139.506494,110.795802 L139.506494,112.963778 L24.4935065,112.963778 L24.4935065,110.795802 Z" id="Fill-8" fill="#36BF86"></path>
                        <path d="M24.4935065,201.882736 L139.506494,201.882736 L139.506494,206.676785 L24.4935065,206.676785 L24.4935065,201.882736 Z" id="Fill-9" fill="#E8EDEF"></path>
                        <path d="M24.4935065,216.264884 L139.506494,216.264884 L139.506494,221.058933 L24.4935065,221.058933 L24.4935065,216.264884 Z" id="Fill-10" fill="#E8EDEF"></path>
                        <path d="M24.4935065,230.647031 L82,230.647031 L82,235.44108 L24.4935065,235.44108 L24.4935065,230.647031 Z" id="Fill-11" fill="#E8EDEF"></path>
                        <path d="M87.4577922,60.3911697 L88.1372208,60.3911697 C91.0700519,60.3911697 93.4480519,62.7700835 93.4480519,65.7040415 L92.6482857,74.0936275 L87.4577922,74.0936275 L87.4577922,60.3911697" id="Fill-12" fill="#42210B"></path>
                        <path d="M85.0616883,93.9495137 L79.0714286,96.3465383 L73.0811688,93.9495137 L73.0811688,78.368854 L85.0616883,78.368854 L85.0616883,93.9495137" id="Fill-13" fill="#FFBDB0"></path>
                        <path d="M85.0616883,93.9495137 L79.0714286,96.3465383 L75.4772727,84.3614155 L85.0616883,84.3614155 L85.0616883,93.9495137" id="Fill-14" fill="#FF9181"></path>
                        <path d="M71.3666234,70.1507885 C71.3666234,64.0996331 76.357974,59.1926575 82.4068052,59.1926575 C88.4567013,59.1926575 93.4480519,64.0996331 93.4480519,70.1507885 L93.4480519,78.5020221 L71.3666234,78.5020221 L71.3666234,70.1507885" id="Fill-15" fill="#FFBDB0"></path>
                        <path d="M83.0777143,89.0233619 L83.0777143,89.0233619 C78.2184156,89.0233619 74.2792208,85.0826535 74.2792208,80.2214877 L74.2792208,77.5698458 L93.4480519,77.5698458 L93.4480519,78.6479742 C93.4480519,84.3773956 88.8049351,89.0233619 83.0777143,89.0233619" id="Fill-16" fill="#FFBDB0"></path>
                        <path d="M82.6655844,82.0315076 C82.6655844,83.0968518 83.737974,84.4285321 85.0616883,84.4285321 C86.3854026,84.4285321 87.4577922,83.0968518 87.4577922,82.0315076 L82.6655844,82.0315076" id="Fill-17" fill="#FFFFFF"></path>
                        <path d="M86.2597403,78.368854 L86.2597403,78.368854 C85.5984156,78.368854 85.0616883,77.8329859 85.0616883,77.1703417 L85.0616883,71.1788457 L87.4577922,68.7807557 L87.4577922,77.1703417 C87.4577922,77.8329859 86.9210649,78.368854 86.2597403,78.368854" id="Fill-18" fill="#FF9181"></path>
                        <path d="M89.8538961,71.1777803 L93.4480519,71.1777803 C93.4480519,69.8546228 92.3756623,68.7807557 91.0519481,68.7807557 L87.4577922,68.7807557 C87.4577922,70.1049786 88.5301818,71.1777803 89.8538961,71.1777803" id="Fill-19" fill="#42210B"></path>
                        <path d="M93.4480519,54.3986083 L81.4675325,54.3986083 C77.4974545,54.3986083 74.2792208,57.619144 74.2792208,61.589682 L88.6558442,61.589682 C92.6259221,61.589682 93.4480519,58.3702117 93.4480519,54.3986083" id="Fill-20" fill="#42210B"></path>
                        <path d="M75.4772727,66.3837312 L74.7978442,61.0719247 C71.865013,61.0719247 69.487013,63.4497731 69.487013,66.3837312 L70.2867792,74.7733172 L74.2792208,74.7733172 L75.4772727,66.3837312" id="Fill-21" fill="#42210B"></path>
                        <path d="M70.8181818,73.4608131 C69.4060779,73.4608131 68.1558442,74.6060581 68.1558442,76.0187046 L68.1558442,78.4700617 C68.1558442,79.8827082 69.4060779,81.0268879 70.8181818,81.0268879 C72.2302857,81.0268879 73.4805195,79.8827082 73.4805195,78.4700617 L73.4805195,76.0187046 C73.4805195,74.6060581 72.2302857,73.4608131 70.8181818,73.4608131" id="Fill-22" fill="#FFBDB0"></path>
                        <path d="M82.8317143,72.5094606 C82.8317143,72.8961806 82.5186234,73.2083265 82.1331169,73.2083265 C81.7476104,73.2083265 81.4345195,72.8961806 81.4345195,72.5094606 C81.4345195,72.123806 81.7476104,71.8116601 82.1331169,71.8116601 C82.5186234,71.8116601 82.8317143,72.123806 82.8317143,72.5094606" id="Fill-23" fill="#1A2D38"></path>
                        <path d="M91.6174286,72.5094606 C91.6174286,72.8961806 91.3043377,73.2083265 90.9188312,73.2083265 C90.5333247,73.2083265 90.2202338,72.8961806 90.2202338,72.5094606 C90.2202338,72.123806 90.5333247,71.8116601 90.9188312,71.8116601 C91.3043377,71.8116601 91.6174286,72.123806 91.6174286,72.5094606" id="Fill-24" fill="#1A2D38"></path>
                        <path d="M82,71.1777803 L78.4058442,71.1777803 C78.4058442,69.8546228 79.4782338,68.7807557 80.8019481,68.7807557 L84.3961039,68.7807557 C84.3961039,70.1049786 83.3237143,71.1777803 82,71.1777803" id="Fill-25" fill="#42210B"></path>
                        <path id="Fill-26" fill="#FF9181"></path>
                        <path d="M73.0811688,75.4402227 C72.0162338,75.4402227 71.3506494,76.2147279 71.3506494,77.1703417 C71.3506494,78.1270209 72.0162338,78.9015262 73.0811688,78.9015262 L73.0811688,75.4402227" id="Fill-27" fill="#FF9181"></path>
                        <path d="M72.9480519,61.7899667 L72.1493506,68.0818899 C75.6103896,68.0818899 78.4729351,65.3002761 78.4729351,61.8070123 C78.4729351,61.78464 78.4708052,61.7899667 78.4708052,61.7899667 L72.9480519,61.7899667" id="Fill-28" fill="#42210B"></path>
                        <path d="M58.5714286,129.971999 L107.558442,129.971999 L107.558442,170.455081 L58.5714286,170.455081 L58.5714286,129.971999 Z" id="Fill-29" fill="#F35A4B"></path>
                        <path d="M42.5974026,148.082851 L73.4805195,148.082851 L73.4805195,182.70654 L42.5974026,182.70654 L42.5974026,148.082851 Z" id="Fill-30" fill="#E8EDEF"></path>
                        <path d="M73.848987,148.082851 L43.1298701,148.082851 L58.4894286,129.643873 L73.848987,148.082851" id="Fill-31" fill="#FFFFFF"></path>
                        <path d="M123,148.410977 L92.2808831,148.410977 L107.640442,129.971999 L123,148.410977 L89.5,138.5" id="Fill-32" fill="#F35A4B"></path>
                        <path d="M73.4805195,148.082851 L122.467532,148.082851 L122.467532,182.70654 L73.4805195,182.70654 L73.4805195,148.082851 Z" id="Fill-33" fill="#FFFFFF"></path>
                        <path d="M61.5617662,141.568271 C61.5617662,143.265365 60.1858701,144.640724 58.4894286,144.640724 C56.792987,144.640724 55.4181558,143.265365 55.4181558,141.568271 C55.4181558,139.870112 56.792987,138.494753 58.4894286,138.494753 C60.1858701,138.494753 61.5617662,139.870112 61.5617662,141.568271" id="Fill-34" fill="#E8EDEF"></path>
                        <path d="M55.3766234,156.605605 L61.7662338,156.605605 L61.7662338,169.389736 L55.3766234,169.389736 L55.3766234,156.605605 Z" id="Fill-35" fill="#FFFFFF"></path>
                        <path d="M86.2597403,156.605605 L92.6493506,156.605605 L92.6493506,169.389736 L86.2597403,169.389736 L86.2597403,156.605605 Z" id="Fill-36" fill="#E8EDEF"></path>
                        <path d="M107.558442,156.605605 L113.948052,156.605605 L113.948052,169.389736 L107.558442,169.389736 L107.558442,156.605605 Z" id="Fill-37" fill="#E8EDEF"></path>
                        <path d="M138.974026,48.4731636 C138.974026,53.7689899 134.683403,58.0612619 129.38961,58.0612619 C124.095818,58.0612619 119.805195,53.7689899 119.805195,48.4731636 C119.805195,43.1773373 124.095818,38.8850653 129.38961,38.8850653 C134.683403,38.8850653 138.974026,43.1773373 138.974026,48.4731636" id="Fill-38" fill="#F35A4B"></path>
                        <path d="M131.245792,45.2227982 C130.221325,45.2227982 129.38961,46.0548321 129.38961,47.0796933 C129.38961,46.0548321 128.557896,45.2227982 127.533429,45.2227982 C126.507896,45.2227982 125.676182,46.0548321 125.676182,47.0796933 C125.676182,47.2139267 125.691091,47.3438987 125.717714,47.4696093 C126.124519,49.4447575 129.38961,51.7235289 129.38961,51.7235289 C129.38961,51.7235289 132.654701,49.4447575 133.061506,47.4696093 C133.08813,47.3438987 133.103039,47.2139267 133.103039,47.0796933 C133.103039,46.0548321 132.271325,45.2227982 131.245792,45.2227982" id="Fill-39" fill="#FFFFFF"></path>
                    </g>
                </g>
            </g>
        </g>
    </g>
</svg>