<?xml version="1.0" encoding="UTF-8" standalone="no"?>
<svg width="382px" height="239px" viewBox="0 0 382 239" version="1.1" xmlns="http://www.w3.org/2000/svg" xmlns:xlink="http://www.w3.org/1999/xlink" xmlns:sketch="http://www.bohemiancoding.com/sketch/ns">
    <!-- Generator: Sketch 3.3.3 (12072) - http://www.bohemiancoding.com/sketch -->
    <title>Imported Layers</title>
    <desc>Created with Sketch.</desc>
    <defs></defs>
    <g id="Website" stroke="none" stroke-width="1" fill="none" fill-rule="evenodd" sketch:type="MSPage">
        <g id="Cloud-Streams-Home" sketch:type="MSArtboardGroup" transform="translate(-752.000000, -933.000000)">
            <g id="Property-Streams-+-Lorem-ipsum-dolor-si-+-Learn-more-+-Imported-Layers" sketch:type="MSLayerGroup" transform="translate(171.000000, 933.000000)">
                <g id="Imported-Layers" transform="translate(582.000000, 0.000000)" sketch:type="MSShapeGroup">
                    <path d="M364.864828,159.333333 C369.939311,159.333333 374.066296,163.4633 374.066296,168.538874 L374.066296,181.305169 C374.066296,186.380744 369.939311,190.509556 364.864828,190.509556 L356.755118,190.509556 L356.755118,159.333333 L364.864828,159.333333 M364.864828,152.405797 L349.830647,152.405797 L349.830647,197.437092 L364.864828,197.437092 C373.770852,197.437092 380.990767,190.215135 380.990767,181.305169 L380.990767,168.538874 C380.990767,159.628908 373.770852,152.405797 364.864828,152.405797" id="Fill-1" fill="#F4F4F4"></path>
                    <path d="M256.540707,0.785120773 C268.132272,0.785120773 277.528779,10.1857874 277.528779,21.7824831 L277.528779,181.842053 C277.528779,193.438749 268.132272,202.838261 256.540707,202.838261 L23.2356495,202.838261 C11.6440846,202.838261 2.24873112,193.438749 2.24873112,181.842053 L2.24873112,21.7824831 C2.24873112,10.1857874 11.6440846,0.785120773 23.2356495,0.785120773 L256.540707,0.785120773 L256.540707,0.785120773 Z" id="Fill-2" fill="#F4F4F4"></path>
                    <path d="M256.540707,0.785120773 C268.132272,0.785120773 277.528779,10.1857874 277.528779,21.7824831 L277.528779,181.842053 C277.528779,193.438749 268.132272,202.838261 256.540707,202.838261 L23.2356495,202.838261 C11.6440846,202.838261 2.24873112,193.438749 2.24873112,181.842053 L2.24873112,21.7824831 C2.24873112,10.1857874 11.6440846,0.785120773 23.2356495,0.785120773 L256.540707,0.785120773 L256.540707,0.785120773 Z" id="Stroke-3" stroke="#FFFFFF"></path>
                    <path d="M17.4652568,16.1642512 L262.129909,16.1642512 L262.129909,187.043478 L17.4652568,187.043478 L17.4652568,16.1642512 Z" id="Fill-4" fill="#FFFFFF"></path>
                    <path d="M275.869215,214.753623 L4.88003021,214.753623 C2.26835045,214.753623 0.151770393,212.636106 0.151770393,210.024425 L0.151770393,204.362319 C0.151770393,203.215812 1.08080363,202.286367 2.22680363,202.286367 L278.522441,202.286367 C279.668441,202.286367 280.597474,203.215812 280.597474,204.362319 L280.597474,210.024425 C280.597474,212.636106 278.480894,214.753623 275.869215,214.753623 L275.869215,214.753623 Z" id="Fill-5" fill="#F4F4F4"></path>
                    <path d="M275.869215,214.753623 L4.88003021,214.753623 C2.26835045,214.753623 0.151770393,212.636106 0.151770393,210.024425 L0.151770393,204.362319 C0.151770393,203.215812 1.08080363,202.286367 2.22680363,202.286367 L278.522441,202.286367 C279.668441,202.286367 280.597474,203.215812 280.597474,204.362319 L280.597474,210.024425 C280.597474,212.636106 278.480894,214.753623 275.869215,214.753623 L275.869215,214.753623 Z" id="Stroke-6" stroke="#FFFFFF"></path>
                    <path d="M305.984894,238.422705 C308.212266,238.422705 308.216882,234.958937 305.984894,234.958937 C303.757523,234.958937 303.752906,238.422705 305.984894,238.422705" id="Fill-7" fill="#FFFFFF"></path>
                    <path d="M356.630477,214.753623 L301.483988,214.753623 C299.503589,214.753623 297.897112,213.147589 297.897112,211.165159 L297.897112,140.407304 C297.897112,138.424874 299.503589,136.818841 301.483988,136.818841 L356.630477,136.818841 C358.610876,136.818841 360.217353,138.424874 360.217353,140.407304 L360.217353,211.165159 C360.217353,213.147589 358.610876,214.753623 356.630477,214.753623" id="Fill-8" fill="#F4F4F4"></path>
                    <path d="M34.1993958,57.7294686 L121.702785,57.7294686 L121.702785,121.926947 L34.1993958,121.926947 L34.1993958,57.7294686 Z" id="Fill-9" fill="#E8EDEF"></path>
                    <path d="M34.1993958,143.029377 L121.702785,143.029377 L121.702785,146.055556 L34.1993958,146.055556 L34.1993958,143.029377 Z" id="Fill-10" fill="#E8EDEF"></path>
                    <path d="M34.1993958,32.9057971 L247.126888,32.9057971" id="Stroke-11" stroke="#36BF86" stroke-width="4"></path>
                    <path d="M63.3883505,86.4013865 L94.3995952,86.4013865 L94.3995952,110.255203 L63.3883505,110.255203 L63.3883505,86.4013865 Z" id="Fill-12" fill="#FFFFFF"></path>
                    <path d="M94.3995952,86.4013865 L63.3883505,86.4013865 L78.8933958,72.0336763 L94.3995952,86.4013865" id="Fill-13" fill="#F35A4B"></path>
                    <path d="M81.1473112,81.0152271 C81.1473112,82.261029 80.1386465,83.2701401 78.8933958,83.2701401 C77.6492991,83.2701401 76.6394804,82.261029 76.6394804,81.0152271 C76.6394804,79.7705797 77.6492991,78.760314 78.8933958,78.760314 C80.1386465,78.760314 81.1473112,79.7705797 81.1473112,81.0152271" id="Fill-14" fill="#E8EDEF"></path>
                    <path d="M74.0728097,95.0053865 L83.7139819,95.0053865 L83.7139819,110.255203 L74.0728097,110.255203 L74.0728097,95.0053865 Z" id="Fill-15" fill="#E8EDEF"></path>
                    <path d="M324.440918,80.975971 L324.440918,130.313884 C338.289861,130.313884 349.098961,119.269082 349.098961,105.644928 C349.098961,92.0207729 338.289861,80.975971 324.440918,80.975971" id="Fill-16" fill="#F4F4F4"></path>
                    <path d="M324.440918,24.8883285 L324.440918,49.2467005 C331.278834,49.2467005 336.614139,43.7935749 336.614139,37.0680918 C336.614139,30.3414541 331.278834,24.8883285 324.440918,24.8883285" id="Fill-17" fill="#F4F4F4"></path>
                    <path d="M324.440918,49.2467005 L324.440918,80.975971 C315.534894,80.975971 308.582725,73.8729372 308.582725,65.111913 C308.582725,56.3497343 315.534894,49.2467005 324.440918,49.2467005" id="Fill-18" fill="#F4F4F4"></path>
                    <path d="M43.2289063,127.376609 C41.5670332,127.376609 40.2190695,128.724014 40.2190695,130.387778 C40.2190695,128.724014 38.8711057,127.376609 37.2092326,127.376609 C35.5473595,127.376609 34.1993958,128.724014 34.1993958,130.387778 C34.1993958,130.603686 34.2236314,130.814976 34.2663323,131.018184 C34.9264653,134.221014 40.2190695,137.9157 40.2190695,137.9157 C40.2190695,137.9157 45.5116737,134.221014 46.1718066,131.018184 C46.2156616,130.814976 46.2387432,130.603686 46.2387432,130.387778 C46.2387432,128.724014 44.8919335,127.376609 43.2289063,127.376609" id="Fill-19" fill="#F35A4B"></path>
                    <path d="M121.175372,130.468599 L121.171909,130.468599 C121.134979,128.15942 118.837208,125.641261 116.002792,125.641261 C113.146447,125.641261 110.830211,128.098227 110.830211,130.955836 C110.830211,131.724792 111.002169,132.522614 111.303384,133.17842 C111.879269,134.735961 113.160296,137.007039 116.006254,139.457077 C118.882218,136.981638 120.158628,134.747507 120.725281,133.187657 C120.978024,132.619599 121.129208,131.721329 121.161523,131.067831 C121.179988,130.856541 121.175372,130.468599 121.175372,130.468599 L121.175372,130.468599 Z M116.002792,133.458986 C114.698683,133.458986 113.640393,132.401382 113.640393,131.096696 C113.640393,129.790855 114.698683,128.733251 116.002792,128.733251 C117.3069,128.733251 118.36519,129.790855 118.36519,131.096696 C118.36519,132.401382 117.3069,133.458986 116.002792,133.458986 L116.002792,133.458986 Z" id="Fill-20" fill="#E8EDEF"></path>
                    <path d="M113.617311,71.5025652 C113.617311,74.9651787 110.811746,77.7719855 107.350665,77.7719855 C103.889583,77.7719855 101.084018,74.9651787 101.084018,71.5025652 C101.084018,68.0399517 103.889583,65.2331449 107.350665,65.2331449 C110.811746,65.2331449 113.617311,68.0399517 113.617311,71.5025652" id="Fill-21" fill="#FFFFFF"></path>
                    <path d="M161.148036,57.7294686 L248.651426,57.7294686 L248.651426,121.926947 L161.148036,121.926947 L161.148036,57.7294686 Z" id="Fill-22" fill="#E8EDEF"></path>
                    <path d="M34.1993958,160.634556 L121.702785,160.634556 L121.702785,186.930329 L34.1993958,186.930329 L34.1993958,160.634556 Z" id="Fill-23" fill="#E8EDEF"></path>
                    <path d="M161.148036,160.634556 L248.651426,160.634556 L248.651426,186.930329 L161.148036,186.930329 L161.148036,160.634556 Z" id="Fill-24" fill="#E8EDEF"></path>
                    <path d="M161.148036,143.029377 L248.651426,143.029377 L248.651426,146.055556 L161.148036,146.055556 L161.148036,143.029377 Z" id="Fill-25" fill="#E8EDEF"></path>
                    <path d="M190.336991,86.4013865 L221.348236,86.4013865 L221.348236,110.255203 L190.336991,110.255203 L190.336991,86.4013865 Z" id="Fill-26" fill="#FFFFFF"></path>
                    <path d="M221.348236,86.4013865 L190.336991,86.4013865 L205.842036,72.0336763 L221.348236,86.4013865" id="Fill-27" fill="#F35A4B"></path>
                    <path d="M208.095952,81.0152271 C208.095952,82.261029 207.087287,83.2701401 205.842036,83.2701401 C204.59794,83.2701401 203.588121,82.261029 203.588121,81.0152271 C203.588121,79.7705797 204.59794,78.760314 205.842036,78.760314 C207.087287,78.760314 208.095952,79.7705797 208.095952,81.0152271" id="Fill-28" fill="#E8EDEF"></path>
                    <path d="M201.02145,95.0053865 L210.662622,95.0053865 L210.662622,110.255203 L201.02145,110.255203 L201.02145,95.0053865 Z" id="Fill-29" fill="#E8EDEF"></path>
                    <path d="M170.177547,127.376609 C168.515674,127.376609 167.16771,128.724014 167.16771,130.387778 C167.16771,128.724014 165.819746,127.376609 164.157873,127.376609 C162.496,127.376609 161.148036,128.724014 161.148036,130.387778 C161.148036,130.603686 161.172272,130.814976 161.214973,131.018184 C161.875106,134.221014 167.16771,137.9157 167.16771,137.9157 C167.16771,137.9157 172.460314,134.221014 173.120447,131.018184 C173.164302,130.814976 173.187384,130.603686 173.187384,130.387778 C173.187384,128.724014 171.840574,127.376609 170.177547,127.376609" id="Fill-30" fill="#E8EDEF"></path>
                    <path d="M248.124012,130.468599 L248.12055,130.468599 C248.083619,128.15942 245.785849,125.641261 242.951432,125.641261 C240.095088,125.641261 237.778852,128.098227 237.778852,130.955836 C237.778852,131.724792 237.95081,132.522614 238.252024,133.17842 C238.827909,134.735961 240.108937,137.007039 242.954894,139.457077 C245.830858,136.981638 247.107269,134.747507 247.673921,133.187657 C247.926665,132.619599 248.077849,131.721329 248.110163,131.067831 C248.128628,130.856541 248.124012,130.468599 248.124012,130.468599 L248.124012,130.468599 Z M242.951432,133.458986 C241.646169,133.458986 240.589033,132.401382 240.589033,131.096696 C240.589033,129.790855 241.646169,128.733251 242.951432,128.733251 C244.255541,128.733251 245.313831,129.790855 245.313831,131.096696 C245.313831,132.401382 244.255541,133.458986 242.951432,133.458986 L242.951432,133.458986 Z" id="Fill-31" fill="#E8EDEF"></path>
                    <path d="M140.193432,11.6371063 C138.569644,11.6371063 137.253994,10.3208744 137.253994,8.69636715 C137.253994,7.0718599 138.569644,5.75562802 140.193432,5.75562802 C141.817221,5.75562802 143.13287,7.0718599 143.13287,8.69636715 C143.13287,10.3208744 141.817221,11.6371063 140.193432,11.6371063" id="Fill-32" fill="#D8D8D8"></path>
                    <path d="M157.651178,206.336667 L125.199644,206.336667 C123.26887,206.336667 121.702785,204.771043 121.702785,202.838261 L161.148036,202.838261 C161.148036,204.771043 159.583106,206.336667 157.651178,206.336667" id="Fill-33" fill="#D8D8D8"></path>
                </g>
            </g>
        </g>
    </g>
</svg>