<?xml version="1.0" encoding="UTF-8" standalone="no"?>
<svg width="20px" height="18px" viewBox="0 0 20 18" version="1.1" xmlns="http://www.w3.org/2000/svg" xmlns:xlink="http://www.w3.org/1999/xlink" xmlns:sketch="http://www.bohemiancoding.com/sketch/ns">
    <!-- Generator: Sketch 3.3.3 (12072) - http://www.bohemiancoding.com/sketch -->
    <title>twitter_s</title>
    <desc>Created with Sketch.</desc>
    <defs></defs>
    <g id="Website" stroke="none" stroke-width="1" fill="none" fill-rule="evenodd" sketch:type="MSPage">
        <g id="Cloud-Streams-Home" sketch:type="MSArtboardGroup" transform="translate(-1129.000000, -2899.000000)" fill="#FFFFFF">
            <g id="Footer" sketch:type="MSLayerGroup" transform="translate(-4.000000, 2844.000000)">
                <g id="Group" sketch:type="MSShapeGroup">
                    <g id="linkedin_s-+-twitter_s-+-google-plus_s" transform="translate(1133.094688, 55.612000)">
                        <path d="M4.25918866,4.27363761 C7.33724004,5.84569142 9.93854833,5.75499601 9.93854833,5.75499601 C9.93854833,5.75499601 8.95237636,2.2783383 12.0005439,0.736516542 C15.0487113,-0.805305462 17.1462884,1.79415652 17.1462884,1.79415652 C17.1462884,1.79415652 17.6779019,1.64652494 18.0740061,1.49889337 C18.4701102,1.35126179 19.0434189,1.08763397 19.0434189,1.08763397 L18.1041388,2.7837089 L19.5504878,2.62861126 C19.5504878,2.62861126 19.3722214,2.89229159 18.7933685,3.42935752 C18.2145156,3.96642344 17.9759419,4.24387818 17.9759419,4.24387818 C17.9759419,4.24387818 18.1827237,8.4287269 16.0035983,11.6506702 C13.8244726,14.8726133 11.0089148,16.8063398 6.91886413,17.2133221 C2.82881344,17.6203044 0.16508149,15.9435863 0.16508149,15.9435863 C0.16508149,15.9435863 1.95386277,15.8403115 3.0937129,15.3994139 C4.23356309,14.9585164 5.87292434,13.7971282 5.87292434,13.7971282 C5.87292434,13.7971282 3.54197279,13.071565 2.70522098,12.2553062 C1.86846915,11.4390475 1.65928119,10.9553387 1.65928119,10.9553387 L3.96034872,10.9251069 C3.96034872,10.9251069 1.53974521,9.62513929 0.852413352,8.59725796 C0.165081421,7.56937666 0.0754295085,6.57172709 0.0754295085,6.57172709 L1.84451106,7.29442947 C1.84451106,7.29442947 0.374269552,5.27175951 0.16508149,3.69970571 C-0.0441064673,2.1276519 0.434037436,1.28116139 0.434037436,1.28116139 C0.434037436,1.28116139 1.18113729,2.70158379 4.25918866,4.27363761 Z" id="twitter_s"></path>
                    </g>
                </g>
            </g>
        </g>
    </g>
</svg>